# xmcd
#
# Track frame offsets: 
#        150
#        13311
#        30324
#        54509
#        68258
#        83314
#        96628
#        107130
#        121362
#        136427
#        149004
#        160641
#        174211
#        186848
#
# Disc length: 2661 seconds
#
# Revision: 0
# Processed by: cddbd v1.5.2PL0 Copyright (c) Steve Scherf et al.
# Submitted via: ExactAudioCopy v0.99pb5
#
DISCID=b30a630e
DTITLE=Various Artist - Formidable Rhythm and Blues [CD2 - Lent)
DYEAR=2008
DGENRE=R&B
TTITLE0=Ben E. King - Stand By Me
TTITLE1=Brook Benton - Rainy Night In Georgia
TTITLE2=Donny Hathaway - A Song For You
TTITLE3=Wilson Pickett - Bring It On Home To Me
TTITLE4=Solomon Burke - Keep A Light In The Window Till I Come Home
TTITLE5=Clarence Carter - I'd Rather Go Blind
TTITLE6=Patti Labelle and The Bluebells - Dreamer
TTITLE7=Otis Redding - I've Been Loving You To Long
TTITLE8=Jackie Moore - Precious, Precious
TTITLE9=Doris Troy - Stormy Weather
TTITLE10=Lou Johnson - People In Love
TTITLE11=Billy Vera and Judy Clay - Storybook Children
TTITLE12=Esther Phillips - Try Me
TTITLE13=Percy Sledge - Rainbow Road
EXTD=
EXTT0=
EXTT1=
EXTT2=
EXTT3=
EXTT4=
EXTT5=
EXTT6=
EXTT7=
EXTT8=
EXTT9=
EXTT10=
EXTT11=
EXTT12=
EXTT13=
PLAYORDER=
